<?xml version="1.0" encoding="UTF-8" standalone="no"?>
<!DOCTYPE svg PUBLIC "-//W3C//DTD SVG 1.1//EN" "http://www.w3.org/Graphics/SVG/1.1/DTD/svg11.dtd">
<svg width="100%" height="100%" viewBox="0 0 24 24" version="1.1" xmlns="http://www.w3.org/2000/svg" xmlns:xlink="http://www.w3.org/1999/xlink" xml:space="preserve" xmlns:serif="http://www.serif.com/" style="fill-rule:evenodd;clip-rule:evenodd;stroke-linecap:round;stroke-linejoin:round;stroke-miterlimit:10;">
    <g id="finnish-sauna">
        <g transform="matrix(0.381316,0,0,0.381316,16.4898,11.3907)">
            <path d="M0,-24.627C-1.015,-22.758 -2.183,-19.86 -1.769,-16.418C-1.436,-13.652 -0.308,-12.428 0.396,-9.533C0.913,-7.4 1.24,-4.2 0,0" style="fill:none;fill-rule:nonzero;stroke:black;stroke-width:2.62px;"/>
        </g>
        <g transform="matrix(0.381316,0,0,0.381316,20.7472,14.8224)">
            <path d="M0,-18.536C-0.764,-17.129 -1.643,-14.949 -1.331,-12.357C-1.08,-10.275 -0.231,-9.355 0.298,-7.175C0.687,-5.57 0.934,-3.161 0,0" style="fill:none;fill-rule:nonzero;stroke:black;stroke-width:2.62px;"/>
        </g>
        <g transform="matrix(0,-0.381316,-0.381316,0,9.24871,6.53331)">
            <ellipse cx="-5.5" cy="0" rx="5.5" ry="5.501" style="fill:none;stroke:black;stroke-width:2.62px;"/>
        </g>
        <g transform="matrix(0.381316,0,0,0.381316,3.00673,20.4072)">
            <path d="M0,-44.894L0,0L29.148,0" style="fill:none;fill-rule:nonzero;stroke:black;stroke-width:2.62px;"/>
        </g>
        <g transform="matrix(0.381316,0,0,0.381316,14.0239,15.3247)">
            <path d="M0,5.617L-4.868,-7.735C-5.868,-10.477 -8.902,-11.889 -11.645,-10.889C-14.388,-9.889 -15.8,-6.856 -14.8,-4.113L-11.05,6.172L-10.267,6.151L3.767,6.151L15.121,17.506" style="fill:none;fill-rule:nonzero;stroke:black;stroke-width:2.62px;"/>
        </g>
        <g transform="matrix(0.174485,-0.339052,-0.339052,-0.174485,8.75781,17.4631)">
            <path d="M-4.265,6.992L11.461,6.992" style="fill:none;fill-rule:nonzero;stroke:black;stroke-width:2.62px;"/>
        </g>
    </g>
</svg>
