<?xml version="1.0" encoding="UTF-8" standalone="no"?>
<!DOCTYPE svg PUBLIC "-//W3C//DTD SVG 1.1//EN" "http://www.w3.org/Graphics/SVG/1.1/DTD/svg11.dtd">
<svg width="100%" height="100%" viewBox="0 0 24 24" version="1.1" xmlns="http://www.w3.org/2000/svg" xmlns:xlink="http://www.w3.org/1999/xlink" xml:space="preserve" xmlns:serif="http://www.serif.com/" style="fill-rule:evenodd;clip-rule:evenodd;stroke-linecap:round;stroke-linejoin:round;stroke-miterlimit:10;">
    <g id="sauna">
        <g transform="matrix(0.284917,0,0,0.284917,4.90379,14.4086)">
            <path d="M0,-24.626C0.807,-22.757 1.736,-19.859 1.406,-16.418C1.142,-13.651 0.245,-12.428 -0.314,-9.532C-0.727,-7.399 -0.986,-4.199 0,0" style="fill:none;fill-rule:nonzero;stroke:black;stroke-width:3.51px;"/>
        </g>
        <g transform="matrix(0.284917,0,0,0.284917,2.14617,16.973)">
            <path d="M0,-18.536C0.607,-17.129 1.308,-14.948 1.059,-12.357C0.859,-10.275 0.185,-9.354 -0.236,-7.175C-0.547,-5.57 -0.742,-3.161 0,0" style="fill:none;fill-rule:nonzero;stroke:black;stroke-width:3.51px;"/>
        </g>
        <g transform="matrix(0.284917,0,0,0.284917,15.136,14.4087)">
            <path d="M0,-12.443L0,-12.428C0.018,-12.239 0.018,-12.065 0.018,-11.861C0.018,-5.312 -4.918,0 -10.998,0C-17.097,0 -22.031,-5.312 -22.031,-11.861C-22.031,-11.948 -22.031,-12.036 -22.014,-12.109L-22.014,-12.123" style="fill:none;fill-rule:nonzero;stroke:black;stroke-width:3.51px;"/>
        </g>
        <g transform="matrix(0.284917,0,0,0.284917,8.52229,2.92318)">
            <path d="M0,27.877C-3.192,23.294 -3.121,19.495 -3.003,18.085C-2.171,8.186 10.716,0 17.756,3.072C20.18,4.13 21.541,6.362 22.243,7.812C20.095,10.84 17.259,14.321 13.578,17.824C8.717,22.451 3.903,25.671 0,27.877Z" style="fill:none;fill-rule:nonzero;stroke:black;stroke-width:3.51px;"/>
        </g>
        <g transform="matrix(0.284917,0,0,0.284917,14.8597,10.8634)">
            <path d="M0,-20.057C3.208,-17.378 5.499,-13.765 5.834,-9.782C5.939,-8.372 6.01,-4.582 2.82,0C-0.758,-2.009 -5.164,-4.917 -9.711,-9.095" style="fill:none;fill-rule:nonzero;stroke:black;stroke-width:3.51px;"/>
        </g>
        <g transform="matrix(0.284917,0,0,0.284917,19.0962,14.4086)">
            <path d="M0,-24.626C-0.807,-22.757 -1.736,-19.859 -1.406,-16.418C-1.142,-13.651 -0.245,-12.428 0.314,-9.532C0.727,-7.399 0.986,-4.199 0,0" style="fill:none;fill-rule:nonzero;stroke:black;stroke-width:3.51px;"/>
        </g>
        <g transform="matrix(0.284917,0,0,0.284917,21.8538,16.973)">
            <path d="M0,-18.536C-0.607,-17.129 -1.308,-14.948 -1.06,-12.357C-0.859,-10.275 -0.185,-9.354 0.236,-7.175C0.547,-5.57 0.742,-3.161 0,0" style="fill:none;fill-rule:nonzero;stroke:black;stroke-width:3.51px;"/>
        </g>
        <g transform="matrix(0.284917,0,0,0.284917,6.81641,14.5019)">
            <path d="M0,20.66L0,10.47C0,4.68 4.681,0 10.471,0L26.25,0C32.021,0 36.7,4.68 36.7,10.45L36.7,20.66" style="fill:none;fill-rule:nonzero;stroke:black;stroke-width:3.51px;"/>
        </g>
    </g>
</svg>
