<?xml version="1.0" encoding="UTF-8" standalone="no"?>
<!DOCTYPE svg PUBLIC "-//W3C//DTD SVG 1.1//EN" "http://www.w3.org/Graphics/SVG/1.1/DTD/svg11.dtd">
<svg width="100%" height="100%" viewBox="0 0 24 24" version="1.1" xmlns="http://www.w3.org/2000/svg" xmlns:xlink="http://www.w3.org/1999/xlink" xml:space="preserve" xmlns:serif="http://www.serif.com/" style="fill-rule:evenodd;clip-rule:evenodd;stroke-linecap:round;stroke-linejoin:round;stroke-miterlimit:10;">
    <g transform="matrix(0.262859,0,0,0.262859,16.1643,8.56254)">
        <path d="M0,-18.537C1.019,-17.13 2.191,-14.949 1.775,-12.358C1.44,-10.276 0.31,-9.355 -0.396,-7.176C-0.916,-5.57 -1.244,-3.162 0,0" style="fill:none;fill-rule:nonzero;stroke:black;stroke-width:3.8px;"/>
    </g>
    <g transform="matrix(0.262859,0,0,0.262859,15.1988,21.982)">
        <path d="M0,-36.482C0.043,-30.444 -0.154,-23.149 -0.913,-15.019C-1.439,-9.37 -2.141,-4.341 -2.879,0" style="fill:none;fill-rule:nonzero;stroke:black;stroke-width:3.8px;"/>
    </g>
    <g transform="matrix(0.262859,0,0,0.262859,12.0001,21.982)">
        <path d="M0,-36.482L0,0" style="fill:none;fill-rule:nonzero;stroke:black;stroke-width:3.8px;"/>
    </g>
    <g transform="matrix(0.262859,0,0,0.262859,8.80141,21.982)">
        <path d="M0,-36.482C-0.043,-30.444 0.154,-23.149 0.912,-15.019C1.439,-9.37 2.141,-4.341 2.879,0" style="fill:none;fill-rule:nonzero;stroke:black;stroke-width:3.8px;"/>
    </g>
    <g transform="matrix(-0.262859,0,0,0.262859,6.44966,18.6191)">
        <path d="M-42.438,0L0,0" style="fill:none;fill-rule:nonzero;stroke:black;stroke-width:3.8px;"/>
    </g>
    <path d="M16.345,21.982L7.663,21.982C7.332,21.982 7.042,21.763 6.948,21.445C6.743,20.762 6.552,20.041 6.382,19.283C5.809,16.727 5.614,14.389 5.603,12.393L18.395,12.393C18.422,14.391 18.252,16.789 17.624,19.423C17.453,20.138 17.261,20.817 17.057,21.459C16.957,21.769 16.671,21.982 16.345,21.982ZM17.652,10.235L6.348,10.235C5.936,10.235 5.603,10.568 5.603,10.98L5.603,12.392L18.397,12.392L18.397,10.98C18.397,10.568 18.064,10.235 17.652,10.235ZM13.554,10.235C12.869,8.972 12.838,8.024 12.928,7.401C13.088,6.306 13.662,5.96 13.779,4.537C13.832,3.883 13.885,3.102 13.36,2.551C12.871,2.037 12.16,2.018 12,2.018C11.84,2.018 11.129,2.037 10.64,2.551C10.116,3.102 10.168,3.883 10.221,4.537C10.338,5.96 10.912,6.306 11.072,7.401C11.162,8.024 11.131,8.972 10.446,10.235L13.554,10.235Z" style="fill:none;fill-rule:nonzero;stroke:black;stroke-width:1px;"/>
    <g transform="matrix(0.262859,0,0,0.262859,7.83571,8.56254)">
        <path d="M0,-18.537C-1.018,-17.13 -2.19,-14.949 -1.774,-12.358C-1.44,-10.276 -0.31,-9.355 0.396,-7.176C0.917,-5.57 1.244,-3.162 0,0" style="fill:none;fill-rule:nonzero;stroke:black;stroke-width:3.8px;"/>
    </g>
    <g transform="matrix(1,0,0,1,-7.75078,0.836024)">
        <path d="M19.778,2.018C20.252,2.018 20.637,2.392 20.637,2.854C20.637,3.315 20.252,3.69 19.778,3.69C19.304,3.69 18.919,3.315 18.919,2.854C18.919,2.392 19.304,2.018 19.778,2.018ZM19.778,3.018C19.693,3.018 19.637,2.937 19.637,2.854C19.637,2.771 19.693,2.69 19.778,2.69C19.864,2.69 19.919,2.771 19.919,2.854C19.919,2.937 19.864,3.018 19.778,3.018Z"/>
    </g>
</svg>
