<?xml version="1.0" encoding="UTF-8" standalone="no"?>
<!DOCTYPE svg PUBLIC "-//W3C//DTD SVG 1.1//EN" "http://www.w3.org/Graphics/SVG/1.1/DTD/svg11.dtd">
<svg width="100%" height="100%" viewBox="0 0 24 24" version="1.1" xmlns="http://www.w3.org/2000/svg" xmlns:xlink="http://www.w3.org/1999/xlink" xml:space="preserve" xmlns:serif="http://www.serif.com/" style="fill-rule:evenodd;clip-rule:evenodd;stroke-linecap:round;stroke-linejoin:round;stroke-miterlimit:10;">
    <g id="solarium">
        <g transform="matrix(-0.276031,-0.100834,-0.100834,0.276031,3.47497,12.0089)">
            <ellipse cx="-1.888" cy="-5.167" rx="5.501" ry="5.501" style="fill:none;stroke:black;stroke-width:3.4px;"/>
        </g>
        <g transform="matrix(0.293872,0,0,0.293872,11.3165,11.4189)">
            <path d="M0,4.567C5.528,2.966 11.057,1.366 16.586,-0.235C22.055,1.444 27.523,3.124 32.993,4.802" style="fill:none;fill-rule:nonzero;stroke:black;stroke-width:3.4px;"/>
        </g>
        <g transform="matrix(-0.0653715,-0.286509,-0.286509,0.0653715,7.57292,8.2393)">
            <path d="M-8.978,-17.717C-7.653,-11.927 -6.329,-6.138 -5.006,-0.349C-4.354,2.497 -6.133,5.332 -8.978,5.983C-11.824,6.635 -14.66,4.856 -15.311,2.01C-16.124,-1.547 -16.938,-5.105 -17.752,-8.662" style="fill:none;fill-rule:nonzero;stroke:black;stroke-width:3.4px;"/>
        </g>
        <g transform="matrix(0.293872,0,0,0.293872,21.9222,18.1801)">
            <path d="M0,-6.958C-1.085,-4.341 -2.619,-2.292 -3.85,-1.46C-5.621,-0.263 -7.388,0.111 -8.439,0.245L-7.171,3.163C-6.802,4.012 -7.424,4.96 -8.35,4.96L-59.18,4.96C-60.105,4.96 -60.728,4.012 -60.358,3.163L-59.09,0.245C-60.166,0.19 -62.719,-0.099 -64.672,-1.957C-64.672,-1.957 -65.968,-3.198 -67.529,-6.958C-67.71,-7.392 -67.79,-7.834 -67.79,-8.268C-67.79,-10.194 -66.1,-11.918 -63.83,-11.918L-3.699,-11.918C-0.92,-11.918 0.99,-9.346 0,-6.958Z" style="fill:none;fill-rule:nonzero;stroke:black;stroke-width:3.4px;"/>
        </g>
        <g transform="matrix(0.293872,0,0,0.293872,21.9997,4.36229)">
            <path d="M0,8.393L-68.056,8.393L-67.379,6.81C-65.608,2.67 -61.644,0 -57.268,0L-10.789,0C-6.412,0 -2.447,2.67 -0.678,6.81L0,8.393Z" style="fill:none;fill-rule:nonzero;stroke:black;stroke-width:3.4px;"/>
        </g>
    </g>
</svg>
