<?xml version="1.0" encoding="UTF-8" standalone="no"?>
<!DOCTYPE svg PUBLIC "-//W3C//DTD SVG 1.1//EN" "http://www.w3.org/Graphics/SVG/1.1/DTD/svg11.dtd">
<svg width="100%" height="100%" viewBox="0 0 24 24" version="1.1" xmlns="http://www.w3.org/2000/svg" xmlns:xlink="http://www.w3.org/1999/xlink" xml:space="preserve" xmlns:serif="http://www.serif.com/" style="fill-rule:evenodd;clip-rule:evenodd;stroke-linecap:round;stroke-linejoin:round;stroke-miterlimit:10;">
    <g id="holiday-home">
        <g transform="matrix(0.346606,0,0,0.346606,12.4739,9.93333)">
            <path d="M0,6.031L-3.319,6.031C-4.042,6.031 -4.629,5.445 -4.629,4.721L-4.629,1.31C-4.629,0.587 -4.042,0 -3.319,0L0,0C0.724,0 1.311,0.587 1.311,1.31L1.311,4.721C1.311,5.445 0.724,6.031 0,6.031" style="fill-rule:nonzero;stroke:black;stroke-width:2.89px;stroke-linecap:butt;stroke-miterlimit:2;"/>
        </g>
        <g transform="matrix(0.346606,0,0,0.346606,18.1634,15.9855)">
            <path d="M0,-22.768L0,8.457L-35.563,8.457L-35.563,-22.768L-17.781,-31.225L0,-22.768Z" style="fill:none;fill-rule:nonzero;stroke:black;stroke-width:2.89px;"/>
        </g>
        <g transform="matrix(0.346606,0,0,0.346606,13.795,14.3517)">
            <path d="M0,13.161L-10.357,13.161L-10.357,5.178C-10.357,2.318 -8.039,0 -5.179,0C-2.318,0 0,2.318 0,5.178L0,13.161Z" style="fill:none;fill-rule:nonzero;stroke:black;stroke-width:2.89px;"/>
        </g>
        <g transform="matrix(0,-0.346606,-0.346606,0,13.9147,0.914111)">
            <path d="M-23.305,-12.258L-20.715,-12.258L-12.258,5.523L-20.715,23.305L-23.305,23.305" style="fill:none;fill-rule:nonzero;stroke:black;stroke-width:2.89px;"/>
        </g>
        <g transform="matrix(-0.313005,0.148875,0.148875,0.313005,4.87848,10.6788)">
            <path d="M-25.489,-5.753L1.298,-5.753" style="fill:none;fill-rule:nonzero;stroke:black;stroke-width:2.89px;"/>
        </g>
        <g transform="matrix(0.313007,0.14887,0.14887,-0.313007,13.2628,3.47586)">
            <path d="M-1.298,-5.753L25.49,-5.753" style="fill:none;fill-rule:nonzero;stroke:black;stroke-width:2.89px;"/>
        </g>
        <g transform="matrix(0.346606,0,0,0.346606,5.83691,18.6125)">
            <path d="M0,-10.647C-0.224,-10.715 -2.888,-11.481 -5,-9.758C-6.771,-8.314 -7.399,-5.737 -6.481,-3.422C-7.843,-3.784 -9.28,-3.369 -10.186,-2.351C-11.363,-1.025 -11.039,0.651 -11,0.834L0,0.834" style="fill:none;fill-rule:nonzero;stroke:black;stroke-width:2.89px;"/>
        </g>
        <g transform="matrix(0.346606,0,0,0.346606,18.1631,18.6125)">
            <path d="M0,-10.647C0.224,-10.715 2.888,-11.481 5,-9.758C6.771,-8.314 7.399,-5.737 6.481,-3.422C7.843,-3.784 9.281,-3.369 10.186,-2.351C11.363,-1.025 11.039,0.651 11,0.834L0,0.834" style="fill:none;fill-rule:nonzero;stroke:black;stroke-width:2.89px;"/>
        </g>
    </g>
</svg>
