<?xml version="1.0" encoding="UTF-8" standalone="no"?>
<!DOCTYPE svg PUBLIC "-//W3C//DTD SVG 1.1//EN" "http://www.w3.org/Graphics/SVG/1.1/DTD/svg11.dtd">
<svg width="100%" height="100%" viewBox="0 0 24 24" version="1.1" xmlns="http://www.w3.org/2000/svg" xmlns:xlink="http://www.w3.org/1999/xlink" xml:space="preserve" xmlns:serif="http://www.serif.com/" style="fill-rule:evenodd;clip-rule:evenodd;stroke-linecap:round;stroke-linejoin:round;stroke-miterlimit:10;">
    <g id="whirlpool" transform="matrix(0.313735,0,0,0.313735,8.23518,8.23518)">
        <g transform="matrix(0,1,1,0,13.9127,-27.2915)">
            <path d="M21.367,-25.902C21.367,-19.995 25.902,-19.995 25.902,-14.088C25.902,-8.178 21.367,-8.178 21.367,-2.27C21.367,3.637 25.902,3.637 25.902,9.544C25.902,15.455 21.367,15.455 21.367,21.367" style="fill:none;fill-rule:nonzero;stroke:black;stroke-width:3.19px;"/>
        </g>
        <g transform="matrix(0,-1,-1,0,12,-35.8785)">
            <ellipse cx="-31.874" cy="0" rx="9.019" ry="31.874" style="fill:none;stroke:black;stroke-width:3.19px;"/>
        </g>
        <g transform="matrix(0,1,1,0,32.514,-15.3645)">
            <path d="M11.36,-52.388L43.371,-52.388C48.351,-52.388 52.388,-38.117 52.388,-20.514C52.388,-2.91 48.351,11.36 43.371,11.36L11.36,11.36" style="fill:none;fill-rule:nonzero;stroke:black;stroke-width:3.19px;"/>
        </g>
        <g transform="matrix(0,1,1,0,16.9815,-24.8785)">
            <path d="M26.893,-36.856L29.142,-36.856C33.403,-36.856 36.856,-22.585 36.856,-4.982C36.856,12.622 33.403,26.892 29.142,26.892L26.893,26.892" style="fill:none;fill-rule:nonzero;stroke:black;stroke-width:3.19px;"/>
        </g>
        <g transform="matrix(0,1,1,0,20.3885,-12.5086)">
            <path d="M23.486,-40.263L31.298,-40.263C36.25,-40.263 40.263,-25.992 40.263,-8.389C40.263,9.215 36.25,23.486 31.298,23.486L23.486,23.486" style="fill:none;fill-rule:nonzero;stroke:black;stroke-width:3.19px;"/>
        </g>
        <g transform="matrix(0,1,1,0,1.30945,21.7385)">
            <path d="M-11.974,-11.974L11.974,-11.974" style="fill:none;fill-rule:nonzero;stroke:black;stroke-width:3.19px;"/>
        </g>
        <g transform="matrix(0,1,1,0,12.2076,23.537)">
            <path d="M-11.773,-11.773L11.773,-11.773" style="fill:none;fill-rule:nonzero;stroke:black;stroke-width:3.19px;"/>
        </g>
        <g transform="matrix(0,1,1,0,23.3641,24.4719)">
            <path d="M-11.829,-11.829L11.829,-11.829" style="fill:none;fill-rule:nonzero;stroke:black;stroke-width:3.19px;"/>
        </g>
        <g transform="matrix(0,1,1,0,34.4638,24.4719)">
            <path d="M-11.829,-11.829L11.829,-11.829" style="fill:none;fill-rule:nonzero;stroke:black;stroke-width:3.19px;"/>
        </g>
        <g transform="matrix(0,1,1,0,45.0674,21.8285)">
            <path d="M-11.333,-11.333L11.333,-11.333" style="fill:none;fill-rule:nonzero;stroke:black;stroke-width:3.19px;"/>
        </g>
    </g>
</svg>
