<svg xmlns="http://www.w3.org/2000/svg" fill-rule="evenodd" stroke-linecap="round" stroke-linejoin="round" stroke-miterlimit="10" clip-rule="evenodd" viewBox="0 0 24 24" stroke-width="1.0" stroke="currentColor" aria-hidden="true">
  <path fill="none" d="M2.743 18.2c1.124-.897 3.233-2.269 5.976-2.218 2.584.047 4.576 1.335 5.681 2.218"/>
  <path fill="none" d="M5.623 16.613a11.038 11.038 0 01-.115-5.696A11.016 11.016 0 017.88 6.364M7.646 6.585c-1.542-.967-3.495-.754-4.654.426-.927.944-1.23 2.386-.8 3.718a11.968 11.968 0 015.454-4.144zM2.09 4.671c1.507-1.52 3.614-1.734 4.825-.797.981.759 1.088 2.047 1.106 2.357a10.054 10.054 0 00-5.93-1.56zM13.416 4.963C12.339 3.51 10.499 3.14 9.31 3.885c-1.217.761-1.254 2.378-1.255 2.5a6.42 6.42 0 012.582-1.34 6.416 6.416 0 012.779-.082z"/>
  <path fill="none" d="M11.353 11.296c1.08-1.428.889-3.367-.27-4.394-.907-.806-2.307-.96-3.51-.377A7 7 0 019.95 8.4a7.01 7.01 0 011.404 2.896zM3.88 19.247c1.564 0 1.564 1.44 3.129 1.44 1.564 0 1.564-1.44 3.13-1.44 1.564 0 1.564 1.44 3.128 1.44 1.566 0 1.566-1.44 3.131-1.44 1.566 0 1.566 1.44 3.131 1.44"/>
  <ellipse cx="-5.345" cy="-1.296" fill="none" stroke-width="3.15" rx="5.5" ry="5.501" transform="matrix(-.07486 -.30863 -.30863 .07486 17.4 8.414)"/>
  <path fill="none" d="M18.2 5.58v1.127M22 7.773l-.977.564M22 12.16l-.977-.564M18.2 14.354v-1.127M14.401 12.16l.976-.563M14.401 7.773l.976.564"/>
</svg>
