<svg xmlns="http://www.w3.org/2000/svg" fill-rule="evenodd" stroke-linecap="round" stroke-linejoin="round" stroke-miterlimit="10" clip-rule="evenodd" viewBox="0 0 24 24" stroke-width="1.0" stroke="currentColor" aria-hidden="true">
  <ellipse cx="-6.993" fill="none" stroke-width="3.48" rx="6.993" ry="6.994" transform="matrix(0 -.28735 -.28735 0 6.307 13.425)"/>
  <ellipse cx="-6.993" fill="none" stroke-width="3.48" rx="6.993" ry="6.994" transform="matrix(0 -.28735 -.28735 0 17.31 13.425)"/>
  <path fill="none" d="M4.317 15.179l-1.259.003c-.62 0-1.106-.529-1.054-1.147.129-1.551.735-4.316 3.293-6.112 2.79-1.957 6.241-1.589 8.557-.301 1.658.92 2.595 2.235 3.043 2.98.239-.015 2.897-.118 4.405 1.93.314.429.515.865.647 1.268.221.672-.305 1.359-1.011 1.359l-1.638.003M15.32 15.167l-7.023.01M9.935 6.57v4.031M16.898 10.601H3.027"/>
</svg>
