<svg xmlns="http://www.w3.org/2000/svg" fill-rule="evenodd" stroke-linecap="round" stroke-linejoin="round" stroke-miterlimit="10" clip-rule="evenodd" viewBox="0 0 24 24" stroke-width="1.0" stroke="currentColor" aria-hidden="true">
  <path fill="none" d="M16.913 16.87h-3.849v-5.658c0-.9.73-1.63 1.63-1.63h.588c.9 0 1.63.73 1.63 1.63v5.657z"/>
  <path fill="none" d="M19.34 7.607v9.26H9.43a2.201 2.201 0 00-4.4-.04A3.565 3.565 0 012 13.3V7.607c0-1.48 1.196-2.68 2.676-2.68h11.987c1.477 0 2.677 1.2 2.677 2.68zM5.029 16.827c-.003.013-.003.028-.003.041a2.203 2.203 0 104.405 0"/>
  <path fill="none" d="M11.3 7.608H4.736v2.97H11.3zM22 14.819v2.05h-3.94M8.018 7.728v2.528"/>
</svg>
