<svg xmlns="http://www.w3.org/2000/svg" fill-rule="evenodd" stroke-linecap="round" stroke-linejoin="round" stroke-miterlimit="10" clip-rule="evenodd" viewBox="0 0 24 24" stroke-width="1.0" stroke="currentColor" aria-hidden="true">
  <path fill="none" d="M8.874 15.007c.141.053.825.33 1.216 1.189.416.912.187 1.79.145 1.942a1.09 1.09 0 00.64-.558c.274-.544.06-1.114.04-1.166.278.498.74 1.498.702 2.792-.016.527-.037 1.236-.475 1.869a2.142 2.142 0 01-1.755.924c-1.008-.045-1.96-.956-2.08-1.992-.107-.907.441-1.74.638-2.04.406-.616.72-.672.929-1.213.237-.616.13-1.278 0-1.747z"/>
  <path fill="none" d="M13.534 13.917a10.165 10.165 0 00-3.976-.864 10.149 10.149 0 00-4.18.864V22h8.156v-8.083z"/>
  <path fill="none" d="M16.294 10.882H2.616V22h13.678z"/>
  <path fill="none" d="M12.233 4.329H6.679l-.7 6.554h6.954l-.7-6.554zM21.383 5.6a3.019 3.019 0 11-2.447-3.555 2.16 2.16 0 00.718 3.981 2.162 2.162 0 001.73-.427z"/>
</svg>
