<svg xmlns="http://www.w3.org/2000/svg" fill-rule="evenodd" stroke-linecap="round" stroke-linejoin="round" stroke-miterlimit="10" clip-rule="evenodd" viewBox="0 0 24 24" stroke-width="1.0" stroke="currentColor" aria-hidden="true">
  <path fill="none" d="M17.123 4.338H6.878V22h10.245zM15.901 2H8.1v2.338H15.9z"/>
  <path fill="none" d="M13.492 21.999h-2.984v-2.466c0-.732.594-1.325 1.326-1.325h.332c.732 0 1.326.593 1.326 1.325V22zM6.877 7.433H2.734v14.566h4.143"/>
  <path fill-rule="nonzero" stroke-linecap="butt" stroke-miterlimit="2" d="M10.568 8.288H9.544a.404.404 0 01-.404-.404V6.833c0-.224.181-.404.404-.404h1.024c.223 0 .404.18.404.404v1.051c0 .223-.18.404-.404.404M14.456 8.288h-1.024a.404.404 0 01-.404-.404V6.833c0-.224.181-.404.404-.404h1.024c.223 0 .404.18.404.404v1.051a.404.404 0 01-.404.404M10.568 12.184H9.544a.404.404 0 01-.404-.404v-1.052c0-.223.181-.404.404-.404h1.024c.223 0 .404.181.404.404v1.052c0 .223-.18.404-.404.404M14.456 12.184h-1.024a.404.404 0 01-.404-.404v-1.052c0-.223.181-.404.404-.404h1.024c.223 0 .404.181.404.404v1.052a.404.404 0 01-.404.404M10.568 16.08H9.544a.404.404 0 01-.404-.404v-1.052c0-.223.181-.404.404-.404h1.024c.223 0 .404.181.404.404v1.052c0 .223-.18.404-.404.404M14.456 16.08h-1.024a.404.404 0 01-.404-.404v-1.052c0-.223.181-.404.404-.404h1.024c.223 0 .404.181.404.404v1.052a.404.404 0 01-.404.404"/>
  <path fill="none" d="M17.123 21.999h4.143V7.433h-4.143"/>
</svg>
