<svg xmlns="http://www.w3.org/2000/svg" fill-rule="evenodd" stroke-linecap="round" stroke-linejoin="round" stroke-miterlimit="10" clip-rule="evenodd" viewBox="0 0 24 24" stroke-width="1.0" stroke="currentColor" aria-hidden="true">
  <path fill="none" d="M18.164 8.238V19.06H5.837V8.238l6.164-2.932 6.163 2.932z"/>
  <path fill="none" d="M13.795 19.057h-3.59V16.29a1.795 1.795 0 113.59 0v2.767zM18.164 9.135v-.897L12 5.306 5.837 8.238v.897M12 5.227L3.616 9.215M12 5.227l8.385 3.988M5.837 15.065c-.078-.023-1.001-.288-1.733.309-.614.5-.832 1.393-.514 2.196a1.277 1.277 0 00-1.283.371c-.408.46-.296 1.04-.283 1.104h3.813M18.163 15.065c.078-.023 1.001-.288 1.733.309.614.5.832 1.393.514 2.196.472-.125.97.018 1.284.371.408.46.295 1.04.282 1.104h-3.813M16.61 4.94v2.526M5.837 10.441h12.326M12 5.306v5.054M8.42 7.157L12 10.442M5.837 16.018H8.42M15.58 7.157L12 10.44M18.164 12.992H5.837M18.164 16.018H15.58"/>
</svg>
