<svg xmlns="http://www.w3.org/2000/svg" fill-rule="evenodd" stroke-linecap="round" stroke-linejoin="round" stroke-miterlimit="10" clip-rule="evenodd" viewBox="0 0 24 24" stroke-width="1.0" stroke="currentColor" aria-hidden="true">
  <path fill="none" d="M3.482 19.206h17.495M16.384 19.206V8.19M16.53 11.333l1.836-2.006M14.095 11.543l2.222 1.634M22 12.381c0 1.528-1.358 2.768-3.032 2.768a3.27 3.27 0 01-1.233-.238 1.782 1.782 0 01-1.351.597c-.55 0-1.04-.235-1.352-.6a3.212 3.212 0 01-1.232.241c-1.674 0-3.033-1.24-3.033-2.768 0-.793.368-1.51.954-2.013a2.24 2.24 0 01-.506-1.407c0-1.302 1.158-2.357 2.585-2.357.022 0 .045 0 .067.003.27-1.04 1.297-1.813 2.517-1.813s2.246.772 2.517 1.813c.022-.003.045-.003.067-.003 1.426 0 2.582 1.055 2.582 2.357 0 .526-.19 1.01-.506 1.404.589.503.956 1.22.956 2.016zM6.714 19.206V10.33M6.629 12.599l-1.542-1.684M8.671 12.775l-1.864 1.372"/>
  <path fill="none" d="M11.357 14.018c-.267 1.026-1.276 1.784-2.474 1.784-.37 0-.717-.07-1.035-.2-.265.306-.676.5-1.134.5-.461 0-.873-.197-1.134-.503a2.672 2.672 0 01-1.035.203C3.14 15.802 2 14.762 2 13.478c0-.665.309-1.267.8-1.69a1.877 1.877 0 01-.424-1.182c0-1.09.973-1.977 2.169-1.977a.36.36 0 01.056.003c.226-.873 1.09-1.523 2.113-1.523s1.887.65 2.113 1.523c.017-.003.038-.003.056-.003 1.195 0 2.165.887 2.165 1.977 0 .444-.158.85-.423 1.182.062.053.124.109.176.167"/>
</svg>
