<svg xmlns="http://www.w3.org/2000/svg" fill-rule="evenodd" stroke-linecap="round" stroke-linejoin="round" stroke-miterlimit="10" clip-rule="evenodd" viewBox="0 0 24 24" stroke-width="1.0" stroke="currentColor" aria-hidden="true">
  <path fill="none" d="M5.087 22V2.841c0-.464.377-.841.842-.841H18.07c.465 0 .842.377.842.841V22"/>
  <path fill="none" d="M7.978 4.684c.25.418.538 1.066.436 1.835-.082.618-.36.892-.533 1.539-.128.476-.208 1.191.097 2.13M14.124 16.808h4.611M9.753 16.808h-4.5M9.571 16.808h-.568v-4.074c0-.929.754-1.68 1.683-1.68h2.539c.93 0 1.68.751 1.68 1.68v4.074h-.583"/>
  <circle cx="-6.09" r="6.09" fill="none" stroke-width="3.37" transform="matrix(0 -.2969 -.2969 0 11.955 7.436)"/>
  <path fill="none" d="M12.719 21.34H11.19c-.72 0-1.303-.584-1.303-1.304v-3.688c0-.465.377-.842.842-.842h2.45c.465 0 .842.377.842.842v3.688c0 .72-.584 1.303-1.303 1.303zM11.955 15.506v5.833M15.883 4.684c-.25.418-.538 1.066-.436 1.835.082.618.36.892.533 1.539.127.476.208 1.191-.098 2.13"/>
</svg>
