<svg xmlns="http://www.w3.org/2000/svg" fill-rule="evenodd" stroke-linecap="round" stroke-linejoin="round" stroke-miterlimit="10" clip-rule="evenodd" viewBox="0 0 24 24" stroke-width="1.0" stroke="currentColor" aria-hidden="true">
  <path fill="none" d="M16.164 3.69c.268.37.576.943.467 1.624-.088.547-.385.79-.57 1.362-.137.422-.224 1.055.103 1.887M15.199 12.392a56.486 56.486 0 01-.24 5.642 52.716 52.716 0 01-.517 3.948M12 12.392v9.59M8.801 12.392c-.01 1.588.04 3.505.24 5.642.139 1.485.323 2.807.517 3.948M17.605 18.62H6.45"/>
  <path fill="none" d="M16.345 21.982H7.663a.746.746 0 01-.715-.537 31.495 31.495 0 01-.566-2.162 32.29 32.29 0 01-.779-6.89h12.792a28.608 28.608 0 01-.771 7.03 28.978 28.978 0 01-.567 2.036.75.75 0 01-.712.523zm1.307-11.747H6.348a.744.744 0 00-.745.745v1.412h12.794V10.98a.744.744 0 00-.745-.745zm-4.098 0c-.685-1.263-.716-2.211-.626-2.834.16-1.095.734-1.441.851-2.864.053-.654.106-1.435-.419-1.986-.489-.514-1.2-.533-1.36-.533-.16 0-.871.019-1.36.533-.524.551-.472 1.332-.419 1.986.117 1.423.691 1.769.851 2.864.09.623.059 1.571-.626 2.834h3.108z"/>
  <path fill="none" d="M7.836 3.69c-.268.37-.576.943-.467 1.624.088.547.385.79.57 1.362.138.422.224 1.055-.103 1.887"/>
  <path d="M12.027 2.854c.474 0 .86.374.86.836a.848.848 0 01-.86.836.848.848 0 01-.859-.836c0-.462.385-.836.86-.836zm0 1c-.085 0-.14-.081-.14-.164s.055-.164.14-.164c.086 0 .141.081.141.164s-.055.164-.14.164z"/>
</svg>
