<svg xmlns="http://www.w3.org/2000/svg" fill-rule="evenodd" stroke-linecap="round" stroke-linejoin="round" stroke-miterlimit="10" clip-rule="evenodd" viewBox="0 0 24 24" stroke-width="1.0" stroke="currentColor" aria-hidden="true">
  <path fill="none" d="M4.904 7.392c.23.533.494 1.358.4 2.339-.075.788-.33 1.137-.49 1.962-.117.607-.191 1.52.09 2.716M2.146 11.692c.173.4.373 1.022.302 1.76-.057.593-.25.856-.37 1.477-.088.457-.143 1.143.068 2.044M15.136 10.863v.005c.005.054.005.103.005.161 0 1.866-1.406 3.38-3.139 3.38-1.737 0-3.143-1.514-3.143-3.38 0-.024 0-.05.005-.07v-.004M8.522 10.866c-.91-1.306-.889-2.388-.855-2.79.237-2.82 3.908-5.153 5.914-4.278.69.302 1.079.938 1.279 1.351a19.557 19.557 0 01-6.338 5.717z"/>
  <path fill="none" d="M14.86 5.149c.914.763 1.566 1.793 1.662 2.927.03.402.05 1.482-.859 2.787a19.069 19.069 0 01-3.57-2.59M19.096 7.392c-.23.533-.494 1.358-.4 2.339.075.788.33 1.137.49 1.962.117.607.191 1.52-.09 2.716M21.854 11.692c-.173.4-.373 1.022-.302 1.76.057.593.25.856.369 1.477.089.457.144 1.143-.067 2.044M6.816 20.388v-2.903A2.98 2.98 0 019.8 14.502h4.495a2.978 2.978 0 012.978 2.977v2.91"/>
</svg>
