<svg xmlns="http://www.w3.org/2000/svg" fill-rule="evenodd" stroke-linecap="round" stroke-linejoin="round" stroke-miterlimit="10" clip-rule="evenodd" viewBox="0 0 24 24" stroke-width="1.0" stroke="currentColor" aria-hidden="true">
  <path fill="none" d="M21.075 11.238c-.267.493-.575 1.256-.465 2.163.087.73.385 1.052.57 1.814.136.562.222 1.406-.105 2.512M17.53 8.408c-.267.493-.575 1.256-.466 2.163.088.729.385 1.051.57 1.814.137.562.223 1.405-.104 2.512"/>
  <circle cx="-5.501" cy=".001" r="5.501" fill="none" stroke-width="2.86" transform="matrix(0 -.35006 -.35006 0 8.43 7.801)"/>
  <path fill="none" d="M2.699 4.822v15.716h10.203"/>
  <path fill="none" d="M12.813 17.838l-1.704-4.673a1.85 1.85 0 00-3.477 1.267l1.313 3.6.274-.007h4.913L18.106 22M5.12 18.043l2.518-4.895M14.42 2v5.302M16.658 3.292l-4.591 2.65M16.658 5.876l-4.591-2.65"/>
</svg>
