<svg xmlns="http://www.w3.org/2000/svg" fill-rule="evenodd" stroke-linecap="round" stroke-linejoin="round" stroke-miterlimit="10" clip-rule="evenodd" viewBox="0 0 24 24" stroke-width="1.0" stroke="currentColor" aria-hidden="true">
  <circle cx="-1.888" cy="-5.167" r="5.501" fill="none" stroke-width="3.4" transform="matrix(-.27603 -.10083 -.10083 .27603 3.475 12.009)"/>
  <path fill="none" d="M11.316 12.761l4.875-1.411 4.821 1.48M13.236 9.653L8 9.651a1.553 1.553 0 10-.002 3.106l3.217.002M21.922 16.135c-.319.77-.77 1.372-1.131 1.616a3.11 3.11 0 01-1.349.501l.373.858a.378.378 0 01-.347.528H4.531a.377.377 0 01-.346-.528l.372-.858c-.316-.016-1.066-.101-1.64-.647 0 0-.38-.365-.84-1.47a.994.994 0 01-.076-.385c0-.566.496-1.072 1.163-1.072h17.671c.817 0 1.378.756 1.087 1.457zM22 6.829H2l.199-.465c.52-1.217 1.685-2.002 2.971-2.002h13.66c1.285 0 2.45.785 2.97 2.002l.2.465z"/>
</svg>
