<svg xmlns="http://www.w3.org/2000/svg" fill-rule="evenodd" stroke-linecap="round" stroke-linejoin="round" stroke-miterlimit="10" clip-rule="evenodd" viewBox="0 0 24 24" stroke-width="1.0" stroke="currentColor" aria-hidden="true">
  <path fill="none" d="M15.082 11.41c0 2.556-1.208 4.82-3.077 6.207-1.869-1.377-3.088-3.651-3.088-6.207s1.22-4.83 3.088-6.207c1.869 1.388 3.077 3.651 3.077 6.207z"/>
  <path fill="none" d="M5.606 18.161c1.913.896 4.017.814 5.688-.052-.398-1.834-1.688-3.512-3.602-4.408-1.914-.895-4.029-.81-5.692.06.406 1.838 1.692 3.505 3.606 4.4zM18.394 18.161c-1.913.896-4.017.814-5.688-.052.398-1.834 1.688-3.512 3.602-4.408 1.913-.895 4.028-.81 5.692.06-.406 1.838-1.692 3.505-3.606 4.4zM12.005 17.616V9.703M12.706 18.11l5.544-2.623M11.158 18.11l-5.545-2.623"/>
</svg>
