<svg xmlns="http://www.w3.org/2000/svg" fill-rule="evenodd" stroke-linecap="round" stroke-linejoin="round" stroke-miterlimit="10" clip-rule="evenodd" viewBox="0 0 24 24" stroke-width="1.0" stroke="currentColor" aria-hidden="true">
  <path fill="none" d="M21.129 11.175c-.27.496-.579 1.263-.469 2.176.088.733.387 1.057.574 1.825.137.565.223 1.413-.105 2.526M17.563 8.329c-.27.495-.579 1.263-.47 2.175.09.733.388 1.058.574 1.825.137.565.224 1.413-.104 2.526"/>
  <circle cx="-5.501" r="5.501" fill="none" stroke-width="2.84" transform="matrix(0 -.3521 -.3521 0 8.408 7.718)"/>
  <path fill="none" d="M2.644 4.722v15.807h10.264"/>
  <path fill="none" d="M12.818 17.814l-1.714-4.701a1.861 1.861 0 00-3.497 1.275l1.32 3.622.275-.008h4.942L18.142 22M5.079 18.02l2.533-4.924M16.066 5.834c-.183.672-.788 1.264-1.632 1.264-.843 0-1.448-.592-1.631-1.264-.315-1.158.475-2.752 1.631-3.834 1.204 1.134 1.947 2.676 1.632 3.834z"/>
</svg>
