<svg xmlns="http://www.w3.org/2000/svg" fill-rule="evenodd" stroke-linecap="round" stroke-linejoin="round" stroke-miterlimit="10" clip-rule="evenodd" viewBox="0 0 24 24" stroke-width="1.0" stroke="currentColor" aria-hidden="true">
  <path fill="none" d="M2 13.365c2 0 2-1.535 3.999-1.535 2 0 2 1.535 4 1.535 1.999 0 1.999-1.535 3.998-1.535 2 0 2 1.535 4.002 1.535 2 0 2-1.535 4.001-1.535M2 16.741c2 0 2-1.535 3.999-1.535 2 0 2 1.535 4 1.535 1.999 0 1.999-1.535 3.998-1.535 2 0 2 1.535 4.002 1.535 2 0 2-1.535 4.001-1.535M2 20.117c2 0 2-1.535 3.999-1.535 2 0 2 1.535 4 1.535 1.999 0 1.999-1.535 3.998-1.535 2 0 2 1.535 4.002 1.535 2 0 2-1.535 4.001-1.535M2 6.537h20"/>
  <path fill="none" d="M13.148 11.906V4.932a1.049 1.049 0 112.098 0v1.18M18.351 13.26V4.932a1.05 1.05 0 012.099 0v1.18M13.347 9.282h4.804"/>
</svg>
