<svg xmlns="http://www.w3.org/2000/svg" fill-rule="evenodd" stroke-linecap="round" stroke-linejoin="round" stroke-miterlimit="10" clip-rule="evenodd" viewBox="0 0 24 24" stroke-width="1.0" stroke="currentColor" aria-hidden="true">
  <path fill="none" d="M18.159 16.526H5.841a.883.883 0 01-.883-.882V7.296A5.297 5.297 0 0110.255 2h3.49a5.296 5.296 0 015.297 5.296v8.348a.883.883 0 01-.883.882zM4.958 10.549h14.084"/>
  <ellipse cx="-3.726" cy=".001" fill="none" stroke-width="3.21" rx="3.727" ry="3.726" transform="matrix(0 -.31141 -.31141 0 8.25 12.337)"/>
  <ellipse cx="-3.726" cy=".001" fill="none" stroke-width="3.21" rx="3.727" ry="3.726" transform="matrix(0 -.31141 -.31141 0 15.75 12.337)"/>
  <path fill="none" d="M12 2v8.549"/>
  <path fill="none" d="M9.41 16.649l-3.87 5.35"/>
  <path fill="none" d="M17.253 20.677H6.747M15.75 18.624h-7.5"/>
  <path fill="none" d="M14.589 16.65L18.46 22"/>
</svg>
