<svg xmlns="http://www.w3.org/2000/svg" fill-rule="evenodd" stroke-linecap="round" stroke-linejoin="round" stroke-miterlimit="10" clip-rule="evenodd" viewBox="0 0 24 24" stroke-width="1.0" stroke="currentColor" aria-hidden="true">
  <path fill-rule="nonzero" stroke-linecap="butt" stroke-miterlimit="2" d="M10.39 10.415H9.24a.454.454 0 01-.454-.454V8.78c0-.25.203-.454.454-.454h1.15c.251 0 .454.203.454.454v1.182c0 .251-.203.454-.454.454M14.76 10.415h-1.15a.454.454 0 01-.454-.454V8.78c0-.25.203-.454.454-.454h1.15c.251 0 .454.203.454.454v1.182c0 .251-.203.454-.454.454M10.39 14.794H9.24a.454.454 0 01-.454-.454v-1.182c0-.25.203-.454.454-.454h1.15c.251 0 .454.203.454.454v1.182c0 .251-.203.454-.454.454M14.76 14.794h-1.15a.454.454 0 01-.454-.454v-1.182c0-.25.203-.454.454-.454h1.15c.251 0 .454.203.454.454v1.182c0 .251-.203.454-.454.454"/>
  <path fill="none" d="M18.163 5.108v16.715H5.837V5.108L12 2.177l6.163 2.931z"/>
  <path fill="none" d="M13.794 21.82h-3.59v-2.767a1.795 1.795 0 113.59 0v2.767zM18.163 6.006v-.898L12 2.177 5.837 5.108v.898M12 2.177L3.615 6.165M12 2.177l8.384 3.988M5.837 17.829c-.078-.024-1.001-.29-1.733.308-.614.5-.832 1.393-.514 2.196a1.277 1.277 0 00-1.284.371c-.408.46-.295 1.04-.282 1.104h3.813M18.163 17.829c.078-.024 1.001-.29 1.733.308.614.5.832 1.393.513 2.196.473-.125.97.018 1.285.371.408.46.295 1.04.282 1.104h-3.813"/>
</svg>
