<svg xmlns="http://www.w3.org/2000/svg" fill-rule="evenodd" stroke-linecap="round" stroke-linejoin="round" stroke-miterlimit="10" clip-rule="evenodd" viewBox="0 0 24 24" stroke-width="1.0" stroke="currentColor" aria-hidden="true">
  <path fill-rule="nonzero" stroke-linecap="butt" stroke-miterlimit="2" d="M12.474 12.024h-1.15a.454.454 0 01-.455-.454v-1.183c0-.25.204-.454.455-.454h1.15c.25 0 .454.204.454.454v1.183c0 .25-.203.454-.454.454"/>
  <path fill="none" d="M18.163 8.094v10.823H5.837V8.094L12 5.163l6.163 2.931z"/>
  <path fill="none" d="M13.795 18.913h-3.59v-2.767a1.795 1.795 0 113.59 0v2.767zM18.163 8.992v-.898L12 5.163 5.837 8.094v.898M12 5.083L3.616 9.071M12 5.083l8.385 3.988M5.837 14.922c-.078-.023-1.001-.289-1.733.308-.614.5-.832 1.394-.513 2.196a1.278 1.278 0 00-1.285.372c-.408.46-.295 1.04-.282 1.104h3.813M18.163 14.922c.078-.023 1.001-.289 1.733.308.614.5.832 1.394.513 2.196.473-.125.971.019 1.285.372.408.46.295 1.04.282 1.104h-3.813"/>
</svg>
