<svg xmlns="http://www.w3.org/2000/svg" fill-rule="evenodd" stroke-linecap="round" stroke-linejoin="round" stroke-miterlimit="10" clip-rule="evenodd" viewBox="0 0 24 24" stroke-width="1.0" stroke="currentColor" aria-hidden="true">
  <path fill="none" d="M4.474 6.376C6.327 6.376 6.327 7.8 8.18 7.8c1.854 0 1.854-1.423 3.708-1.423 1.853 0 1.853 1.423 3.706 1.423 1.855 0 1.855-1.423 3.71-1.423"/>
  <ellipse cx="-31.874" fill="none" stroke-width="3.19" rx="9.019" ry="31.874" transform="matrix(0 -.31373 -.31373 0 12 -3.021)"/>
  <path fill="none" d="M2 6.979v10.043c0 1.562 4.477 2.829 10 2.829s10-1.267 10-2.83V6.98"/>
  <path fill="none" d="M2 8.867v.706c0 1.337 4.477 2.42 10 2.42s10-1.083 10-2.42v-.706"/>
  <path fill="none" d="M2 11.68v2.45c0 1.554 4.477 2.813 10 2.813s10-1.26 10-2.813v-2.45M4.89 11.299v7.513M8.372 11.926v7.387M11.854 12.202v7.422M15.337 12.202v7.422M18.819 11.528v7.111"/>
</svg>
